<svg width="91" height="97" viewBox="0 0 91 97" fill="none" xmlns="http://www.w3.org/2000/svg">
<path d="M55.8332 2.38895C55.7147 3.35316 55.7615 4.23911 55.6773 5.20645C55.6227 5.82787 55.7178 6.46181 55.6773 7.08479C55.3375 6.60112 55.6103 5.80752 55.5214 5.20645C55.5214 4.48329 55.6617 3.56134 55.5214 2.85853C55.3811 2.15572 55.7973 1.02715 55.6773 0.510607C55.3874 -0.370646 53.6806 0.437034 52.9059 0.545039C52.1312 0.653043 50.8702 1.10698 49.9443 1.17115C49.0185 1.23533 47.7793 1.56874 46.7926 1.6063C46.4092 1.66109 45.6438 1.73309 45.2339 1.91936C42.4438 3.72726 41.705 6.6606 41.3371 9.9023C40.9693 13.144 40.7136 17.7584 40.7136 21.1723C40.7136 21.7593 40.603 22.423 40.5577 22.8941C40.5577 24.893 40.4019 26.6477 40.4019 28.6857C40.4019 29.5654 40.2787 30.5906 40.246 31.3467C40.391 34.0343 40.246 36.9926 40.246 39.7992C40.246 40.8432 40.246 41.8857 40.246 42.9297C39.8532 42.9767 39.8797 42.4132 39.7784 42.1471C38.7902 38.2042 37.6336 34.3489 36.661 30.4075C36.5456 29.9395 36.4459 29.4808 36.3492 28.9987C36.1559 28.3319 35.8239 27.7246 35.7257 26.9639C35.3579 24.1307 34.2091 21.4744 33.6994 18.6679C33.4422 17.8148 33.185 16.9649 33.0759 16.0069C33.1274 15.4966 32.9762 15.0349 32.7642 14.5981C31.3925 15.0255 30.9046 16.597 29.6826 17.4516C28.4606 18.3063 27.7358 19.2345 26.5683 20.2723C25.4008 21.3085 24.9971 22.1444 23.8437 23.3277C22.6902 24.5111 22.6559 25.8885 23.256 27.4335C23.8577 28.9768 23.7377 30.6814 24.2255 32.2514C24.715 33.8198 25.0314 35.3851 25.4398 36.9801C25.8482 38.5767 26.1038 40.2015 26.3734 41.8341C26.4015 41.9014 27.1388 42.6574 27.1419 43.2538C27.145 43.8517 27.7295 44.1961 27.1528 44.8081C28.4995 45.5532 28.3998 47.9386 29.0233 49.3474C28.2049 48.6712 28.219 47.1842 27.6204 46.2168C27.3133 46.2904 27.6376 46.7803 27.3087 46.843C28.2501 49.338 28.5977 51.8299 29.494 54.3532C30.3918 56.8764 30.8329 59.2603 31.6762 61.8665C32.521 64.4712 29.2992 65.6404 28.3998 67.6612C24.9722 68.7193 21.6568 70.4051 18.1123 71.1048C17.5698 71.277 17.0134 71.4601 16.3977 71.5744C14.376 71.9516 12.5087 72.8235 10.4855 73.1506C8.46224 73.4778 7.61587 75.1104 6.57776 76.5833C6.32993 77.0357 6.01351 77.6305 5.7984 78.1486C5.58642 78.8498 5.20765 79.4728 5.01905 80.1835C4.89747 80.6421 4.72757 80.9097 4.55143 81.2792C4.06979 82.6926 3.53048 84.1076 2.98025 85.4929C2.43159 86.8797 1.6569 88.0975 1.12226 89.4186C0.961711 89.8146 0.760636 89.7019 0.654644 90.2013C0.558003 90.5988 0.618793 90.8712 0.498772 91.297C3.32472 91.2516 5.98389 89.8866 8.79425 89.14C11.6062 88.3934 14.6161 87.642 17.4888 87.0707C15.093 88.1194 11.8634 89.1071 8.9657 89.7818C6.06961 90.4564 3.00986 91.347 0.0311576 92.0796C-0.121596 92.5367 0.31952 92.5977 0.654644 92.5492C2.22739 92.1579 3.7596 91.6523 5.33079 91.297C5.67994 91.1717 6.01195 91.0778 6.42189 90.9839C11.7652 89.7552 16.8731 87.7986 22.1649 86.6011C22.7058 86.4086 23.3059 86.1597 23.8795 85.975C26.0274 85.2831 28.1488 83.3813 30.4136 83.9526C32.68 84.5224 34.9807 86.0877 37.5962 85.8185C40.2117 85.5492 43.1826 85.8592 45.6672 84.8449C48.1518 83.8306 50.6395 84.5709 52.9916 85.3849C55.3437 86.1988 58.126 86.9971 60.6652 86.7576C61.2435 86.6074 61.8903 85.9891 62.5356 85.8185C63.0048 85.6948 63.4787 85.6917 63.9385 85.5054C64.7833 85.0718 65.2525 84.4489 65.9648 83.7836C64.5978 84.2751 65.8043 83.0808 66.4776 83.0464C67.151 83.0135 68.0488 83.0104 68.4588 82.2183C69.235 81.4576 70.0892 80.5936 70.7968 79.5573C71.5169 78.5023 72.3618 77.8058 73.1349 77.0529C74.5299 74.5109 75.6959 71.5588 76.4082 68.7569C76.4705 68.6317 75.8689 69.1733 75.7847 69.383C75.6803 68.9745 75.9936 68.688 75.9406 68.2873C76.0123 67.8694 76.0279 67.4671 76.0965 67.0351C76.2586 66.0114 76.2118 64.8828 76.5641 63.9045C76.8867 64.0423 76.7527 64.5369 77.0317 64.6872C77.0317 62.3173 76.3583 59.9522 76.7199 57.7999C76.7324 57.7232 76.7199 57.6434 76.7199 57.6434C76.7277 57.3241 76.6311 57.393 76.4082 57.4869C76.3053 57.6512 76.2897 57.8845 76.0965 57.9565C76.3474 56.4381 77.1938 55.0247 77.9669 53.7302C78.5795 52.4451 79.1967 51.0442 80.1491 49.9735C81.036 48.3049 82.1302 46.5377 82.9548 44.8081C83.1356 44.4293 83.4396 44.1006 83.5783 43.8689C83.6827 43.6936 83.7653 43.4369 83.89 43.2428C84.0365 43.0143 84.2174 42.8108 84.3576 42.6167C84.5447 42.36 84.8346 42.0688 84.9811 41.8341C85.3178 41.1234 85.773 39.4235 86.6957 40.1122C88.7984 36.5137 89.0868 32.3297 90.7484 28.6857V27.2769C90.2963 27.9813 90.354 29.0614 89.969 29.7814C89.7773 28.6215 90.5115 27.2926 90.7484 26.1812V25.3986C88.9761 22.6719 86.8516 20.0719 84.9811 17.4157C84.6632 17.1323 84.4091 16.5062 83.89 16.4765C83.5752 16.8772 83.2135 17.2106 82.9548 17.5722C82.8036 18.0386 83.3382 18.2703 83.2665 18.8244C82.6197 18.4879 82.5994 18.3423 82.1754 18.9809C82.0757 19.4067 82.1786 19.7479 82.1754 20.2332C81.8886 20.2019 81.6642 19.9921 81.3961 20.2332C81.0204 22.5059 79.2295 24.1651 78.1103 26.1687C76.9927 28.1738 75.7613 30.013 74.8464 32.1262C73.9298 34.2377 72.7982 36.3603 72.0438 38.547C71.9908 38.7019 71.9425 38.8631 71.8879 39.0165C71.8365 39.1605 71.7913 39.3531 71.7321 39.4861C71.5107 39.9855 71.305 40.5771 71.1429 41.0858C70.9807 41.5946 70.3713 41.8372 70.1733 42.3036C70.1016 42.5619 70.1032 42.8249 70.0175 43.0863C69.9302 43.3539 69.8117 43.6059 69.7057 43.8689C69.4096 43.7578 69.6262 43.4244 69.7057 43.2428C70.1406 41.1829 70.9028 39.1731 71.4203 37.1382C71.5123 36.7782 71.6385 36.3462 71.7321 36.0425C72.128 34.748 72.4724 33.4457 72.8232 32.1293C73.0055 31.4453 73.2783 30.672 73.6025 30.0944C73.6462 29.9676 73.5916 29.7595 73.6025 29.6249C73.7896 27.3724 75.0958 24.8961 75.4387 22.7032C75.7816 20.5087 76.7433 18.4237 77.1876 16.32C77.2031 16.2448 77.1876 16.1634 77.1876 16.1634C77.2187 14.8486 77.8609 13.7936 78.1228 12.5633C78.1508 12.4271 78.1275 12.233 78.1228 12.0937C78.0994 11.3283 78.4813 10.6677 78.5904 9.9023C78.6527 9.46558 78.7416 9.02418 78.5904 8.65007C79.0518 8.54676 78.9957 8.79251 78.9021 9.11966C78.9099 9.09618 79.1858 9.15722 79.2139 9.11966C79.8654 7.48237 78.4018 6.07832 78.5904 4.42381C77.9529 4.3972 77.8672 4.87931 77.4993 5.20645C76.3365 3.93701 75.0365 3.09645 73.7194 1.95849C72.4023 0.820533 71.2785 -0.852753 69.7057 0.510607C69.4984 0.757922 69.2942 1.31047 69.5499 1.6063C69.0557 1.28855 68.6333 1.87866 68.7705 2.38895C68.6894 2.69261 68.5071 2.78183 68.3029 3.17159C68.1922 3.55195 68.1532 3.65369 67.9911 3.95423C65.731 8.15544 64.3718 12.7855 62.8879 17.2998C61.4024 21.8125 59.3387 26.4865 58.483 31.1901C58.3988 31.6566 58.1276 32.0902 58.0154 32.4424C57.925 32.9245 57.8018 33.38 57.7036 33.8511C57.6257 34.2205 57.6085 34.5649 57.5477 34.9468C57.2547 36.797 56.2883 38.0085 56.1449 39.7992C56.081 38.5031 56.1246 36.9347 56.3522 35.6246C56.5798 34.3144 56.2478 32.4564 57.236 31.8162C57.236 31.6096 57.222 31.3968 57.236 31.1901C57.1799 31.3326 56.9367 31.594 56.7684 31.6597C56.9336 30.9522 56.452 29.1897 57.3919 29.4683C57.3919 28.7906 57.3919 28.1112 57.3919 27.4335C57.3919 26.9999 57.5166 26.5005 57.5477 26.1812C57.5477 21.6341 57.4449 16.993 57.8595 12.5633C57.0053 12.377 57.4885 11.1733 57.5477 10.6849C57.6085 10.1794 57.582 9.75829 57.7036 9.27619C57.7566 9.068 57.794 8.85982 57.8595 8.65007C57.9031 8.51076 58.1634 8.09283 58.1712 8.02396C58.2351 7.72186 58.0606 7.3368 57.7036 7.39785C58.0434 4.90279 58.8181 2.62061 57.236 0.667136C56.9897 0.485563 56.8993 0.66244 56.6125 0.667136C56.8526 0.462084 56.5673 0.291468 56.6125 0.0410228C56.0732 -0.281425 55.936 1.55778 55.8332 2.38895ZM76.5641 7.24132C74.3569 5.83726 71.891 4.17337 70.1733 2.23242C71.4827 2.62061 72.4366 3.63804 73.4825 4.54434C74.5299 5.45064 76.0793 5.99535 76.5641 7.24132ZM52.8716 6.30215C52.8638 6.73104 52.7453 7.23819 52.7157 7.55438C52.7157 8.07561 52.7157 8.59842 52.7157 9.11966C52.7157 9.55324 52.591 10.0526 52.5599 10.3719C52.5599 12.294 52.404 14.0957 52.404 16.0069C52.404 16.6455 52.298 17.3624 52.2481 17.8852C52.2481 19.7761 52.0922 21.6012 52.0922 23.5203C52.0922 23.9538 51.9675 24.4532 51.9364 24.7725C51.9364 25.3282 52.0455 25.8369 52.0922 26.3378C52.1343 26.7886 51.9675 27.2613 51.9364 27.59C51.9364 29.7031 51.7805 31.6989 51.7805 33.6946C51.7805 34.3802 52.0065 35.6841 51.6246 36.199C51.6246 36.2773 51.6246 36.3556 51.6246 36.3556C51.6246 36.7735 51.6246 37.1899 51.6246 37.6078C51.6246 38.7097 51.5732 39.9103 51.4688 40.8949C51.4688 41.1547 51.4812 41.4177 51.4688 41.6775C51.4064 42.8922 51.263 44.2258 51.157 45.4342C51.0947 46.1527 51.157 46.904 51.157 47.6256C51.157 48.4176 51.0666 49.2973 51.0011 49.9735C50.9294 50.7217 50.9871 51.5138 50.8453 52.1649C50.8453 52.3214 50.8453 52.478 50.8453 52.6345C50.9466 53.0978 50.8624 53.846 51.0011 54.3563C51.1508 54.7022 51.0791 54.7085 51.4688 54.8259C52.033 54.7805 51.6542 54.2311 51.6246 53.8867C51.9613 53.8147 52.0907 54.3516 52.404 54.0432C54.502 53.0994 54.6361 49.7763 56.028 47.9778C57.4215 46.1808 57.9374 43.2678 58.7838 41.0405C59.6302 38.8115 60.4142 36.0722 61.1297 33.6915C61.8436 31.3091 62.4951 28.5855 63.3041 26.1703C64.1115 23.7535 64.9345 21.3555 65.7746 18.9465C66.6148 16.536 67.4097 14.0221 68.3029 11.6241C68.4463 11.239 68.7689 10.8665 68.9264 10.5284C69.3862 9.17914 70.1593 7.95665 70.641 6.61521C71.771 7.46515 73.152 8.44189 74.5377 8.96313C74.8495 9.08209 75.1036 9.34819 75.473 9.27619C75.2984 9.61898 75.4527 10.2075 75.0054 10.3719C74.3819 12.7855 73.5869 15.146 72.979 17.5722C72.8839 17.9494 72.619 18.3501 72.5114 18.6679C72.0796 20.4742 71.4109 22.196 70.9636 24.0008C70.5178 25.8071 69.6371 27.3364 69.2506 29.1678C68.8625 30.9976 68.3263 32.8431 67.8462 34.6447C67.3676 36.4479 66.978 38.4374 66.5899 40.2703C66.2002 42.1033 65.5206 43.9268 65.1964 45.7582C64.8737 47.5912 64.1567 49.5337 63.8901 51.3337C63.6252 53.1354 62.4904 55.0873 62.5356 56.8608C62.5419 57.0862 62.7274 57.8845 63.1591 57.7999C63.4257 57.1597 64.244 56.8639 64.4061 56.0781C64.8347 56.3066 65.1979 56.1204 65.6531 56.0781C65.5829 56.698 63.0609 56.9703 65.0296 57.3303C65.2447 57.9095 64.4918 57.6731 64.4061 58.113C64.562 58.1302 64.8316 58.0394 64.8737 58.2695C65.0545 58.2413 65.1792 58.2022 65.3413 58.113C67.0621 57.1644 67.7402 54.7883 68.8905 53.2246C70.0424 51.6609 70.8062 49.3427 71.8755 47.6131C72.9463 45.8834 73.8878 43.8267 74.837 41.9781C75.7863 40.1295 76.5048 38.0602 77.4868 36.1865C78.4704 34.3144 79.2529 32.2264 80.2691 30.3715C81.2854 28.5166 82.0897 26.4912 83.1107 24.6159C83.2042 24.4438 83.3024 24.4219 83.4224 24.3029C84.4808 23.2589 85.8649 25.7336 86.384 26.6508C86.4806 26.9576 86.6521 27.1736 86.8516 27.4335C86.889 27.482 86.8516 27.59 86.8516 27.59C87.0776 28.0564 87.7603 28.5166 87.1633 28.8422C86.8407 29.0191 86.6599 28.4525 86.384 28.9987C86.5071 29.1114 86.61 29.3321 86.6957 29.4683C87.0402 30.013 86.638 30.5296 86.2281 31.0336C86.2125 31.115 86.1096 31.2715 86.0722 31.3467C85.9881 31.5141 85.9803 31.6488 85.9164 31.8162C85.6826 32.4283 85.2882 33.009 84.9811 33.5381C83.3819 36.3008 82.3937 39.6051 81.0875 42.4649C79.7828 45.3231 77.9872 48.1406 76.829 51.0207C75.6694 53.9024 72.9494 56.6933 72.8232 59.8348C72.8107 60.1635 72.8543 60.6456 72.6673 61.087C72.3945 60.9571 72.5628 60.5486 72.5114 60.3044C72.4194 60.1072 72.4179 59.7362 72.0438 59.8348C70.6908 68.3468 64.6664 78.5931 54.8979 78.6182C54.7124 77.3143 54.1887 75.9697 54.7421 74.705C53.0571 75.8508 52.2076 77.5538 50.2093 78.6057C48.211 79.6575 46.1224 80.149 43.8311 80.653C41.5397 81.1571 38.8213 81.0475 36.5051 80.34C36.1154 80.2774 35.7351 80.1177 35.414 80.0269C34.9058 79.9487 34.298 79.8563 33.8553 79.5573C33.3736 79.2318 33.3534 78.6996 32.7642 78.4616C33.305 78.4804 33.782 77.762 33.6994 77.2094C33.5435 77.1922 33.2739 77.283 33.2318 77.0529C33.0401 77.0357 32.7985 77.0278 32.6083 77.0529C31.7557 77.164 30.8501 77.6618 29.9585 77.8355C29.6296 77.8997 29.2508 77.8308 28.8674 77.9921C25.3915 80.2382 21.1627 81.0866 17.3329 82.5314C17.9221 80.7203 14.9372 81.467 13.7136 81.7143C12.49 81.9616 10.3296 81.9647 9.12314 82.4265C7.91669 82.8883 7.82317 84.9263 6.73363 85.5054C6.07585 85.7543 6.76637 84.4238 6.8895 84.0967C7.13734 83.0745 7.46779 81.9413 7.82317 80.9645C8.17856 79.9894 8.0788 78.5399 8.60409 77.679C8.90648 77.1844 9.79027 77.1546 10.3187 77.0529C12.8547 76.5614 15.2972 75.5471 17.8005 75.018C18.53 74.7738 19.3561 74.4639 20.1386 74.2354C24.3019 73.0192 28.5011 70.9718 32.2966 68.7569C32.6161 68.5362 33.1227 67.9492 33.3877 67.6612C36.4552 63.759 34.4647 59.0741 33.5451 54.5113C32.6255 49.9485 31.564 45.1274 30.4261 40.5818C30.2998 40.2375 30.0676 39.9275 29.9585 39.4861C29.893 39.2232 29.8556 38.9821 29.8026 38.7035C29.7044 38.4092 29.4238 38.3967 29.4909 37.9208C29.2882 37.8254 29.1121 37.7111 28.8674 37.7643C29.1464 38.0523 28.9905 38.7223 28.5556 38.7035C28.5042 39.5065 28.9625 39.7929 29.335 39.0165C29.4441 39.4392 29.2103 39.9291 28.7115 39.7992C28.8658 40.1498 29.0264 40.4973 29.0233 40.8949C29.4566 40.8057 29.2072 40.1936 29.6467 40.1122C29.4691 40.9011 31.0371 42.5791 29.4909 42.3036C29.6779 43.7593 30.5726 45.2871 30.2702 46.6864C29.6654 44.7032 28.9874 42.9204 28.5556 40.8949C28.1254 38.8694 26.9143 36.8455 27.3087 34.7903C27.4661 35.5432 28.1176 37.4732 29.0233 36.3556C28.4574 34.3473 27.9914 32.2686 27.4645 30.251C27.385 29.9442 27.3928 29.6217 27.3087 29.3118C26.9439 28.4384 26.6306 27.7089 26.5293 26.6508C26.3703 24.9947 25.6767 23.0147 27.2697 21.9158C28.8627 20.817 29.4753 20.0672 30.2702 18.5113C30.4573 18.1451 31.0995 17.2325 31.5172 16.9461C31.2787 17.832 31.6294 18.8244 31.6731 19.7636C31.7463 20.4006 31.8586 20.9641 31.9848 21.6419C32.2451 22.5169 32.5366 23.5202 32.6597 24.4078C32.7829 25.2953 33.2131 26.7729 33.2318 27.59C33.2489 28.4071 34.1047 29.8847 33.6994 30.4075C33.7197 30.4795 33.6994 30.564 33.6994 30.564C34.5255 30.9413 34.1904 33.1358 34.6346 34.0076C35.0773 34.8795 35.255 36.5481 35.559 37.6187C35.8613 38.691 36.3399 40.0731 36.4942 41.2189C36.6469 42.3662 37.1785 43.714 37.4793 44.769C37.7817 45.8224 38.5361 47.347 38.3755 48.4082C38.3646 48.4849 38.3755 48.5648 38.3755 48.5648C38.614 48.859 39.0084 49.8921 38.3755 49.9735C37.7864 48.4208 37.4653 46.4845 36.9758 44.9615C36.4879 43.4369 36.2588 41.5664 35.1022 40.7384C35.5044 42.6574 36.1045 44.6578 36.6578 46.533C37.2096 48.4098 37.7287 50.5261 38.3646 52.3324C38.999 54.1387 39.1378 56.5086 41.0254 57.1738C41.906 55.8621 42.9551 54.3767 43.2076 52.6345C43.2699 52.2166 43.2372 51.88 43.3634 51.5388C43.7874 50.3868 44.3735 49.7779 44.4545 48.4082C44.4764 48.0451 44.5855 47.5692 44.6104 47.3125C44.6541 46.8633 44.7335 46.2513 44.7663 45.9038C44.7663 45.226 44.7663 44.5467 44.7663 43.8689C44.7663 43.1911 44.7663 42.5118 44.7663 41.8341C44.7663 40.635 44.7663 39.4329 44.7663 38.2339C44.5075 39.0572 44.4608 39.5347 44.1428 40.2688C43.7547 40.0168 43.5926 40.3956 43.2076 40.4253C43.3401 36.1255 43.2403 31.9571 43.9869 27.7465C44.4031 30.982 43.4383 34.543 43.6752 37.7643C44.1646 36.8267 44.3298 38.0022 44.9222 37.7643C44.9393 37.553 45.05 37.42 45.078 37.2947C45.078 36.1145 45.2339 35.0423 45.2339 33.8511C45.2339 33.0012 45.4584 32.2279 45.5456 31.5032C45.6049 29.963 45.7015 28.5182 45.7015 26.9639C45.7015 26.8073 45.7015 26.6508 45.7015 26.4943C45.7015 26.0607 45.8262 25.5614 45.8574 25.2421C45.8091 24.6942 45.9727 24.1025 46.0133 23.6768C46.0133 21.9831 46.1691 20.3803 46.1691 18.6679C46.1691 18.1826 46.2891 17.6285 46.325 17.2591C46.325 16.3716 46.325 15.4857 46.325 14.5981C46.325 14.0628 46.4403 13.4524 46.4809 13.0329C46.4809 11.9888 46.4809 10.9463 46.4809 9.9023C46.4809 9.3028 46.5666 8.66886 46.6367 8.18049C46.6679 7.38063 46.8534 6.6559 46.7926 5.83257C48.9686 5.43342 51.277 5.24715 53.1833 4.11076C53.2005 4.86992 52.7033 5.49916 52.8716 6.30215ZM50.0659 4.42381C49.3162 3.93075 49.2086 5.14071 50.0659 4.42381ZM48.9748 4.58034C48.4916 4.83548 47.5642 5.06714 47.1044 4.8934C47.6203 4.75878 48.4885 4.30642 48.9748 4.58034ZM70.3292 5.20645C71.4141 5.06871 70.3682 4.0951 70.3292 5.20645ZM75.7847 8.49354C74.8573 8.44815 74.3211 7.90813 73.4856 7.35872C72.6501 6.8093 71.411 6.40546 71.2644 5.36298C72.6751 6.5432 74.5019 7.16462 75.7847 8.49354ZM78.5904 6.61521C78.726 7.63264 77.8032 6.78269 78.5904 6.61521ZM77.811 11.1545C77.3777 10.7131 77.9404 10.0964 77.9669 9.58924C78.2787 9.99622 77.9233 10.6771 77.811 11.1545ZM77.811 11.3111C77.7627 12.2909 77.32 13.1643 77.1876 14.1286C76.6638 13.313 77.7877 12.2768 76.8758 11.7806C77.3933 11.8104 77.398 11.5145 77.811 11.3111ZM76.7199 11.6241C76.3988 12.9327 75.9297 14.21 75.6288 15.5373C75.4714 14.3367 76.0637 12.6822 76.7199 11.6241ZM75.473 20.5462C75.2298 19.3832 76.059 18.0324 76.2523 16.7895C76.3708 17.9197 75.7052 19.3206 75.473 20.5462ZM32.6083 20.2332C32.2592 19.6697 32.3012 18.8682 32.1407 18.1983C32.6177 18.491 32.5678 19.6884 32.6083 20.2332ZM32.92 20.5462C33.21 21.8297 32.0565 20.8796 32.92 20.5462ZM33.0759 22.1115C33.4687 23.2542 34.008 24.5079 34.1327 25.7461C34.2574 26.9858 35.0508 28.7232 34.4788 29.6249C33.8303 27.1361 33.079 24.4766 33.0759 22.1115ZM24.6589 24.4594C24.5638 25.4675 23.7408 24.5987 24.6589 24.4594ZM52.5599 28.8422C52.1561 27.7809 52.5708 26.3237 52.404 25.2421C53.0773 26.0169 52.7266 27.7903 52.5599 28.8422ZM80.9285 27.4335C80.5871 28.1832 80.0899 29.1584 79.5256 29.6249C79.5474 28.7123 80.8022 27.6135 79.8374 27.2769C80.2878 26.9827 80.4702 26.9107 80.9285 26.6508C81.0672 26.3785 81.1747 25.9684 81.552 25.8682C81.3976 26.4051 81.1779 26.9247 80.9285 27.4335ZM88.2544 27.2769C87.885 27.2441 87.7681 26.6555 87.6309 26.3378C87.991 26.5162 88.2186 26.8903 88.2544 27.2769ZM25.4382 27.4335C25.6518 26.4755 24.6947 27.05 25.4382 27.4335ZM25.4382 27.903C26.3844 28.6137 25.1561 29.2523 25.4382 27.903ZM25.9058 30.4075C25.8341 30.1257 25.4507 29.6702 25.75 29.4683C26.2254 29.6029 26.2394 30.1492 25.9058 30.4075ZM35.2581 31.9728C35.0165 31.5564 34.7079 30.888 34.9464 30.4075C35.0648 30.8583 35.3735 31.5173 35.2581 31.9728ZM26.2176 30.7205C26.414 31.1714 26.7148 31.8882 26.5293 32.2858C26.2035 31.9305 25.9822 31.1009 26.2176 30.7205ZM26.9969 34.0076C26.693 33.6445 26.4841 32.937 26.6852 32.5989C26.8535 32.9558 27.3305 33.6508 26.9969 34.0076ZM86.2281 39.6427C86.702 38.3482 87.4158 37.0333 87.9427 35.7295C87.8679 37.002 87.2911 38.799 86.2281 39.6427ZM37.1286 39.7992C36.3025 38.5203 36.6064 37.2212 36.0375 36.0425C36.7654 35.8797 36.6329 37.1179 36.8683 37.7127C37.1021 38.309 37.6601 39.2075 37.1286 39.7992ZM70.3292 38.3904C70.2528 40.0402 69.5109 41.9123 69.0822 43.5559C68.6474 43.4604 68.8048 42.9219 69.0822 42.7732C69.0511 42.2927 68.3715 42.756 68.6146 41.9906C69.6886 42.025 68.7378 41.3394 68.9264 40.7384C69.8507 40.5677 69.9707 39.0901 70.3292 38.3904ZM84.9811 39.9557C83.8495 42.3913 82.2425 44.7439 80.7726 46.9995C81.4927 44.7909 83.2837 43.0597 83.5783 40.7384C84.1924 40.837 84.526 40.2265 84.9811 39.9557ZM39.9343 49.5039C38.6296 47.3517 38.7855 43.9253 37.2844 42.1471C37.6352 41.4819 37.1878 40.8291 37.2844 40.1122C38.3272 41.3707 38.2742 43.3086 38.84 44.8128C39.4043 46.3155 40.02 47.97 39.9343 49.5039ZM69.0822 43.7124C68.8157 44.6171 68.3465 45.4545 68.147 46.3734C67.9428 45.622 68.3434 43.9754 69.0822 43.7124ZM67.9911 46.5299C67.7386 47.6772 67.2897 48.9561 66.7442 50.13C66.8081 49.0688 67.1525 47.1654 67.9911 46.5299ZM39.9343 54.5128C39.4947 53.2121 38.759 51.4433 38.6873 50.13C39.3108 51.3197 40.0044 53.043 39.9343 54.5128ZM66.5883 54.3563C66.5462 55.2861 65.7559 54.7414 66.5883 54.3563ZM72.0438 64.2176C72.0033 64.5995 71.771 64.9251 71.7321 65.3133C71.5076 65.0894 71.6307 64.2207 72.0438 64.2176ZM69.7057 69.6961C70.3401 68.2748 70.9215 66.9881 71.4203 65.4698C71.5544 66.8238 70.5942 68.7115 69.7057 69.6961ZM67.2118 77.2094C66.5743 76.5082 65.9071 78.7434 65.0296 78.1486C68.398 75.7678 70.8841 72.0111 72.0438 67.9743C71.9939 71.5979 68.7268 74.4295 67.2118 77.2094ZM69.5499 70.3222C68.7222 72.559 67.126 74.5876 65.1854 75.9572C65.7887 74.5954 67.868 73.8175 67.5235 72.2005C68.0005 72.5778 67.9818 72.0659 67.8353 71.7309C68.6832 72.5731 68.7533 70.4944 69.5499 70.3222ZM68.3029 77.0529C67.3801 77.9341 66.3576 78.9422 65.1854 79.5573C64.9501 79.7186 64.6648 80.0316 64.2502 80.1835C63.7935 80.3509 63.3025 80.4715 62.8474 80.653C62.3533 80.8503 61.708 81.2087 61.1328 81.2792C60.9348 81.3042 60.7088 81.2839 60.5093 81.2792C60.0292 81.3465 59.3325 81.8552 58.7947 81.4357C59.0145 81.2338 59.3964 81.1164 59.7299 81.1226C60.2022 81.035 60.8335 81.1179 61.2887 80.9661C61.6253 80.5466 62.3595 80.365 62.8474 80.1835C63.7888 79.8344 64.6134 79.4102 65.4972 78.9312C65.8541 78.6839 66.434 78.1799 66.9 77.8355C67.0481 77.726 67.2274 77.6289 67.3676 77.5225C68.8703 76.1372 69.634 74.5516 70.9527 73.1397C70.3199 74.5453 69.6465 76.0793 68.3029 77.0529ZM13.2802 75.6441C11.8197 75.6989 10.3327 76.7805 8.91583 76.5833C9.57205 76.2076 10.4683 75.9588 11.2025 75.9055C11.9366 75.8523 12.7674 75.0744 13.2802 75.6441ZM65.0296 76.1137C64.1146 77.3253 62.7258 77.8809 61.4445 78.6182C62.3049 77.6367 63.7483 76.527 65.0296 76.1137ZM61.1328 78.6182C60.8943 79.0126 60.076 79.2772 59.7299 78.9312C60.2926 79.1018 60.5654 78.446 61.1328 78.6182ZM51.9364 79.4008C51.8974 80.2758 51.0604 79.4493 51.9364 79.4008ZM26.6852 84.0967C23.9606 85.6103 20.6888 86.7576 17.6446 87.0707C20.4909 85.7809 23.7127 85.2252 26.6852 84.0967Z" fill="white"/>
<path d="M80.6167 66.0959C80.5621 66.3135 80.6681 67.3466 80.6167 67.6612C80.5325 69.2108 79.895 71.0391 79.5131 72.5011C79.1312 73.963 78.4158 75.2826 77.9326 76.7054C77.4478 78.1267 76.7869 79.3507 76.1447 80.7016C75.501 82.0508 74.8635 83.278 74.0342 84.5302C73.205 85.7825 72.767 86.8876 71.8489 88.1273C70.9324 89.3685 70.5365 90.2232 69.5108 91.5709C68.4868 92.9201 68.3995 93.6809 69.2381 95.2102C70.0237 95.2869 70.1328 94.0972 70.7968 93.9579C71.0275 92.7542 72.633 91.6444 73.2907 90.6708C73.8363 89.331 75.1129 87.8189 75.9405 86.6011C76.073 86.4054 76.1416 86.18 76.2523 85.975C78.8569 81.1398 81.0672 76.0824 82.1754 70.6352C82.1489 73.3698 81.0298 76.2577 80.0976 78.8796C79.1671 81.5014 77.758 84.0215 76.4082 86.288C76.3708 86.3381 76.4082 86.4446 76.4082 86.4446C76.4362 86.634 76.4752 86.8782 76.7199 86.9142C76.7371 86.6074 76.9989 86.3256 77.1875 86.1315C77.8671 85.1063 78.235 83.962 78.7852 82.8836C79.3354 81.8035 79.8623 80.689 80.3065 79.5589C80.7507 78.4288 81.1015 77.2689 81.555 76.1184C82.0102 74.9664 82.2035 73.495 82.6446 72.3586C83.0841 71.2222 82.8971 69.1623 82.4513 68.3233C82.0055 67.4843 80.8224 65.5418 80.6167 66.0959ZM79.2138 77.3659C77.1548 83.5112 73.5136 89.4468 69.2381 94.1145C73.0772 88.9788 76.6934 83.4236 79.2138 77.3659Z" fill="white"/>
<path d="M76.564 94.7406C76.536 94.9018 76.6466 95.0772 76.7199 95.2102C76.9693 95.5139 77.3075 95.3996 77.6551 95.2102C77.7159 95.1773 77.811 95.2102 77.811 95.2102C77.9731 94.9707 78.1586 94.8392 78.4345 94.7406C78.3129 95.2008 77.864 95.5123 77.4993 95.8363C77.4338 96.0429 77.3761 96.1682 77.4993 96.4624C78.7571 96.3169 79.5053 95.038 80.6167 94.4276C81.2402 93.8813 81.9463 93.2066 82.4404 92.6588C82.936 92.1109 83.9508 91.1076 83.89 90.3578C83.6546 89.6863 83.0233 89.187 82.7989 88.4795C81.8044 89.4046 80.6307 90.6537 79.7204 91.6492C78.8086 92.6431 76.7807 93.4618 76.564 94.7406ZM80.4608 93.0188C80.3548 93.551 79.7687 93.9423 79.3697 94.271C79.3962 93.6903 80.0119 93.36 80.4608 93.0188Z" fill="white"/>
</svg>
