<svg width="70" height="32" viewBox="0 0 70 32" fill="none" xmlns="http://www.w3.org/2000/svg">
<path fill-rule="evenodd" clip-rule="evenodd" d="M69.4112 2.44555C69.3502 2.48987 69.2899 2.59193 69.277 2.67243C69.2642 2.75292 69.1853 2.92956 69.1016 3.06508C69.0026 3.22549 68.9676 3.36109 69.0015 3.45371C69.0371 3.55103 68.9903 3.68342 68.8531 3.87328C68.7429 4.02578 68.6094 4.26225 68.5565 4.39865C68.5035 4.53506 68.3527 4.76138 68.2213 4.90149C68.09 5.04167 67.9755 5.19994 67.967 5.2532C67.9584 5.30654 67.835 5.50458 67.6926 5.69336C67.5502 5.88214 67.42 6.12249 67.4032 6.2275C67.3599 6.49852 67.0794 6.66426 66.8668 6.54434C66.7744 6.49216 66.51 6.44641 66.2792 6.44273C66.0486 6.43898 65.6784 6.40968 65.4568 6.37758C65.2353 6.34547 65.015 6.34438 64.9674 6.37518C64.9199 6.40592 64.5512 6.42565 64.1482 6.41895C63.5427 6.40881 63.3638 6.43921 63.1174 6.59403C62.9535 6.697 62.7382 6.76834 62.6391 6.75251C62.4246 6.71826 62.2455 6.83207 62.2152 7.02196C62.2032 7.09734 62.1459 7.1687 62.0879 7.18056C62.0148 7.1955 62.0246 7.24686 62.1201 7.3481C62.2442 7.47961 62.2435 7.51291 62.1139 7.684C62.0347 7.78853 61.9024 7.86322 61.8199 7.85004C61.6181 7.81782 60.7216 8.14414 60.5304 8.31939C60.3776 8.45935 60.3768 8.45913 60.2787 8.25668C60.1949 8.08378 60.1589 8.06616 60.037 8.13857C59.9153 8.21078 59.8797 8.19469 59.8008 8.032C59.6815 7.78587 59.5341 7.76512 59.3495 7.96861C59.2686 8.05773 58.9886 8.28956 58.7272 8.48383C58.4658 8.67809 58.244 8.88679 58.2343 8.94756C58.2246 9.00841 58.134 9.13192 58.033 9.22209C57.8857 9.35365 57.8325 9.36318 57.7641 9.27013C57.6113 9.06221 57.4752 9.10238 57.4848 9.3527C57.4918 9.53405 57.4318 9.63183 57.2054 9.80851C56.9273 10.0256 56.9111 10.0279 56.742 9.87348C56.6456 9.78553 56.4557 9.69584 56.3199 9.67415C56.1842 9.65248 56.0038 9.58201 55.9193 9.51757C55.8347 9.45313 55.5446 9.35309 55.2748 9.29535C54.8421 9.20283 54.7858 9.20735 54.7981 9.33395C54.8098 9.45447 54.716 9.47757 54.2156 9.47735C53.8876 9.47722 53.5936 9.44248 53.5622 9.40013C53.4668 9.27123 53.6566 8.99847 53.8732 8.95321C54.0985 8.90615 54.1778 8.69755 54.0079 8.59894C53.9481 8.56424 53.7206 8.55076 53.5025 8.569C53.2843 8.58723 52.9397 8.57067 52.7364 8.53224C52.5332 8.49381 52.3378 8.49618 52.3022 8.53758C52.2666 8.57899 52.1222 8.59442 51.9812 8.57191C51.8403 8.54941 51.6466 8.56827 51.5508 8.61374C51.455 8.65928 51.2477 8.69808 51.0903 8.70013C50.4069 8.70876 49.9714 8.78294 49.6939 8.93811C49.5642 9.01052 49.3718 9.05602 49.266 9.03912C49.1603 9.02224 48.9618 9.04558 48.8248 9.09102C48.6878 9.13646 48.494 9.15431 48.3939 9.13079C48.2939 9.10729 48.0406 9.1408 47.8311 9.20528C47.6215 9.26968 47.412 9.31647 47.3655 9.30929C47.3189 9.30211 47.0824 9.44597 46.84 9.62901C46.4281 9.93986 46.3945 9.98967 46.3285 10.3862C46.2428 10.9006 46.1587 11.014 45.4739 11.538C45.1123 11.8147 44.9288 12.0123 44.907 12.1488C44.8889 12.2626 44.8291 12.3432 44.7698 12.3337C44.712 12.3245 44.577 12.3907 44.4697 12.4807C44.3624 12.5707 44.2381 12.6522 44.1934 12.6618C44.0697 12.6882 43.4688 13.4876 43.4408 13.663C43.4272 13.7478 43.3553 13.8534 43.2809 13.8976C43.2065 13.9418 43.1362 14.0364 43.1246 14.1078C43.1131 14.1793 42.939 14.4326 42.7377 14.6707C42.4674 14.9903 42.3615 15.1855 42.3329 15.4167C42.3116 15.5889 42.2573 15.7645 42.2122 15.8068C42.0507 15.9585 41.9801 16.2284 42.0971 16.2471C42.1634 16.2577 42.196 16.3463 42.1771 16.4646C42.1437 16.6737 41.9423 16.7138 41.8915 16.5214C41.876 16.4626 41.8513 16.5405 41.8367 16.6944C41.8152 16.9192 41.7778 16.9746 41.6466 16.9754C41.5567 16.9759 41.3945 17.0043 41.2862 17.0383C41.1286 17.0878 41.0481 17.066 40.8829 16.9287C40.7695 16.8344 40.6222 16.7486 40.5557 16.738C40.3239 16.701 40.7128 16.2906 41.0392 16.228C41.2978 16.1783 41.3355 16.1415 41.3487 15.9255C41.365 15.6594 41.3567 15.6561 40.6934 15.6596L40.3462 15.6615L40.2803 16.0743C40.244 16.3012 40.2473 16.5326 40.2876 16.5884C40.3407 16.6619 40.2707 16.6907 40.0328 16.693C39.6721 16.6964 39.0086 16.5122 38.9599 16.395C38.943 16.3541 38.7307 16.2915 38.4882 16.2557C38.2458 16.22 38.0339 16.1721 38.0175 16.1493C37.9864 16.1063 39.0139 15.5091 39.0963 15.5223C39.1218 15.5264 39.1284 15.6195 39.1109 15.7293C39.0639 16.0237 39.4711 16.0755 39.7434 15.8099C39.8525 15.7034 39.9986 15.5701 40.0681 15.5137C40.1376 15.4572 40.4368 15.1246 40.733 14.7747C41.0292 14.4246 41.671 13.8085 42.1592 13.4056C44.1743 11.7419 45.0881 10.465 45.331 8.97354C45.3799 8.67303 45.4489 8.49783 45.5394 8.44407C45.6138 8.39986 45.6857 8.29481 45.6991 8.21064C45.7248 8.04966 46.085 7.51215 46.2857 7.33491C46.417 7.21918 46.7091 6.56953 46.6603 6.50204C46.6432 6.47834 46.58 6.4947 46.5199 6.53841C46.3779 6.64161 46.1456 6.60279 46.0889 6.46649C46.0644 6.40755 46.0675 6.26284 46.0956 6.14483C46.1443 5.94059 46.1306 5.92849 45.8079 5.89188L45.4691 5.85333L45.4738 5.46223C45.4764 5.24711 45.4088 4.83097 45.3236 4.53748C44.9589 3.28071 43.9718 2.54339 42.2956 2.27574C39.8381 1.88332 36.4426 2.70925 33.4427 4.42913C32.5048 4.96675 30.5798 6.39238 29.754 7.16073L29.1897 7.68577L28.5951 7.18769L28.0004 6.68952L28.2007 6.37968C28.4035 6.06583 28.7239 5.1932 28.678 5.07966C28.6642 5.04561 28.5972 5.02966 28.529 5.04416C28.4608 5.05858 28.4113 5.0307 28.419 4.98207C28.4268 4.93343 28.3973 4.88794 28.3536 4.88095C28.3098 4.87396 28.2628 4.93796 28.2492 5.02324C28.2356 5.10852 28.1851 5.19471 28.137 5.21487C28.0262 5.26122 28.067 4.99135 28.2076 4.74595C28.2965 4.5908 28.4336 4.05249 28.7111 2.76798C28.7299 2.6809 28.7644 2.42846 28.7879 2.20701C28.824 1.86475 28.7849 1.94457 28.5275 2.73866C28.1778 3.81715 27.8853 4.49451 27.8494 4.30911C27.8358 4.23939 27.814 3.97795 27.8009 3.72815C27.7194 2.1802 26.7819 0.805932 25.3902 0.194562L24.9472 6.06949e-06L23.3145 0.199021C22.4164 0.308497 21.5698 0.409146 21.4329 0.42259C21.2961 0.436034 20.847 0.487894 20.4349 0.537889C19.5509 0.645095 19.4684 0.639625 19.5607 0.479696C19.6294 0.360789 19.5141 0.197592 19.3401 0.167347C19.2904 0.158764 19.2169 0.256994 19.1766 0.385675C19.1363 0.514357 19.1352 0.624739 19.1743 0.63098C19.2133 0.637209 18.9299 0.819605 18.5445 1.03632C17.5538 1.59311 16.6315 2.25277 15.6124 3.13306C14.7136 3.90948 12.9821 5.62717 12.3104 6.40859L11.9369 6.84338L11.669 6.41695C11.5217 6.18249 11.3249 5.89271 11.2318 5.77302C11.1386 5.65341 11.0142 5.49334 10.9552 5.41743C10.8962 5.34152 10.7882 5.26982 10.7153 5.25817C10.6424 5.24653 10.5873 5.20825 10.5929 5.17311C10.6082 5.07705 10.1767 5.02427 10.0937 5.11199C10.0453 5.1633 10.0264 5.15554 10.0362 5.08832C10.0444 5.03336 10.011 4.98194 9.96223 4.97414C9.90778 4.96545 9.91106 5.04409 9.97077 5.17777C10.0618 5.38148 10.0595 5.39127 9.9356 5.32906C9.82254 5.27235 9.82294 5.28823 9.93849 5.43721C10.0929 5.63637 10.123 5.81872 9.99839 5.79881C9.95206 5.79141 9.93079 5.82544 9.95112 5.87446C9.97153 5.9235 10.0346 5.94494 10.0912 5.92205C10.1658 5.89203 10.1669 5.90875 10.095 5.98276C9.96833 6.1133 9.94977 6.27706 10.0349 6.51453C10.0866 6.65881 10.0793 6.70686 10.0035 6.71942C9.94041 6.72989 9.95755 6.80911 10.0509 6.93833C10.1313 7.04968 10.1651 7.13566 10.1259 7.1294C9.9999 7.10928 10.0069 7.5196 10.1329 7.54243C10.2235 7.55877 10.214 7.57863 10.0933 7.62544C9.94348 7.68349 9.94091 7.6965 10.0466 7.85939C10.1729 8.05398 10.1797 8.42356 10.0579 8.47454C10.0136 8.49311 10.0205 8.56782 10.073 8.64058C10.1471 8.74323 10.1408 8.83384 10.0444 9.04554C9.97623 9.19556 9.92926 9.43708 9.94013 9.58221C9.96844 9.95908 9.9628 9.99945 9.86995 10.0907C9.82183 10.1379 9.8171 10.1988 9.85877 10.2348C9.89835 10.2691 9.89905 10.3522 9.86013 10.4195C9.81328 10.5008 9.82353 10.5276 9.89088 10.4995C9.9578 10.4714 9.96859 10.4979 9.92255 10.5777C9.8842 10.6441 9.80674 10.6716 9.75041 10.6389C9.69407 10.6063 9.64242 10.6143 9.63564 10.6568C9.62884 10.6993 9.6529 10.7389 9.68912 10.7447C9.72534 10.7505 9.7215 10.8619 9.6806 10.9923C9.62776 11.1611 9.63773 11.2275 9.71542 11.223C9.77731 11.2194 9.81389 11.2858 9.79997 11.3765C9.7865 11.4645 9.8076 11.5727 9.84697 11.6169C9.89028 11.6658 9.87104 11.6738 9.79818 11.6372C9.73205 11.6041 9.62234 11.601 9.5544 11.6303C9.46698 11.668 9.45986 11.6886 9.53017 11.7007C9.58483 11.7101 9.61849 11.7867 9.60503 11.8709C9.59159 11.9551 9.6225 12.0493 9.67363 12.0804C9.73422 12.117 9.73513 12.1553 9.67605 12.1899C9.56075 12.2576 9.41811 13.0993 9.50746 13.1854C9.60628 13.2807 9.31027 13.4684 9.11127 13.4366C8.84301 13.3938 8.18427 13.4677 7.96295 13.5655C7.81856 13.6293 7.74026 13.6263 7.68878 13.5551C7.64586 13.4956 7.56039 13.4742 7.477 13.5021C7.40009 13.5277 7.10678 13.6111 6.82523 13.6873C6.54367 13.7636 6.1757 13.9291 6.00749 14.0551C5.83929 14.1812 5.67557 14.2801 5.64365 14.2751C5.61173 14.27 5.45697 14.3465 5.29973 14.4453C5.14241 14.5441 4.8679 14.6937 4.68958 14.7778C4.30193 14.9607 3.67187 15.3607 2.74836 16.01C2.3742 16.2731 2.00654 16.4785 1.93132 16.4665C1.83715 16.4515 1.71892 16.581 1.55104 16.8834L1.30737 17.322L0.628294 18.6809C0.646045 19.2542 -0.0195024 19.4931 0.000440957 19.541C0.0203047 19.5889 0.452564 20.0916 0.478113 20.3099C0.503582 20.5281 1.58788 20.654 1.6502 20.9948C1.7126 21.3356 1.74725 21.7167 1.72729 21.8417C1.70734 21.9666 1.72337 22.0968 1.76296 22.1311C1.80248 22.1652 1.88147 22.3633 1.9385 22.571C2.03446 22.9205 2.24903 23.2008 2.35921 23.1207C2.38489 23.102 2.78565 23.0957 3.2497 23.1066C3.71381 23.1175 4.26113 23.1121 4.46598 23.0944C4.67084 23.0768 5.0766 23.0662 5.36768 23.0709C5.84806 23.0787 6.32839 23.0393 7.08354 22.93C7.23263 22.9084 7.38584 22.9177 7.42384 22.9506C7.46193 22.9835 7.56259 22.9871 7.64756 22.9585C7.73253 22.9299 7.97022 22.8886 8.17575 22.8667C8.38127 22.8449 8.64369 22.8118 8.7589 22.7933C8.87411 22.7747 9.09725 22.7576 9.25475 22.7553C9.41227 22.7529 9.79941 22.7143 10.1152 22.6693C10.5793 22.6032 10.7155 22.6106 10.8271 22.708C10.9454 22.8115 11.018 22.7959 11.3391 22.5986C11.7056 22.3732 11.9606 22.3342 12.0268 22.4933C12.0944 22.6561 10.9985 23.7145 10.0557 24.3968C8.4779 25.5387 6.93817 26.1946 5.3798 26.3885C4.43058 26.5067 4.35165 26.4928 4.39077 26.2151C4.4311 25.9298 4.43474 25.5384 4.3988 25.377C4.38313 25.3069 4.39438 25.1798 4.42369 25.0944C4.453 25.009 4.44856 24.8885 4.41379 24.8266C4.36789 24.745 4.39156 24.72 4.50011 24.7354C4.6453 24.7561 4.64589 24.7529 4.52013 24.6213C4.44893 24.5468 4.42042 24.4513 4.45679 24.4091C4.49309 24.3668 4.48608 24.3264 4.44102 24.3192C4.39605 24.312 4.38284 24.2639 4.41167 24.2121C4.50754 24.0402 4.37673 23.8869 4.15102 23.9069C3.55724 23.9595 2.79938 24.7448 2.55657 25.5589C2.4901 25.7819 2.40446 25.9593 2.36633 25.9532C2.3282 25.9471 2.28857 25.995 2.27827 26.0595C2.26798 26.1239 2.30846 26.1663 2.36837 26.1536C2.45033 26.1362 1.75895 26.9634 1.72729 28.0558C1.70421 28.8526 2.40748 29.132 2.42498 29.2586C2.45529 29.4777 2.43965 29.4903 2.09855 29.5207C1.68068 29.558 1.56849 29.6845 1.39592 30.3123C1.23717 30.8898 1.32678 31.0367 1.82876 31.0222C3.47409 30.9744 7.10216 30.6612 7.21526 30.5571C7.27957 30.4979 7.46231 30.4476 7.62121 30.4452C7.7802 30.4428 7.98288 30.3789 8.0717 30.3033C8.16667 30.2223 8.33182 30.1814 8.47271 30.2039C8.69472 30.2393 8.71568 30.2211 8.75823 29.9546L8.80413 29.6671L8.44136 29.6385C8.24185 29.6227 8.08267 29.5843 8.08764 29.5532C8.09261 29.5221 8.28528 29.4084 8.51571 29.3007C9.42777 28.8743 10.3864 28.2278 11.3888 27.3629C11.9577 26.8721 12.3667 26.3683 12.948 25.4426L13.3859 24.7453L13.7073 24.7772C13.8841 24.7947 14.0832 24.8032 14.1496 24.7961C14.2392 24.7866 14.2673 24.8917 14.2584 25.203C14.2518 25.4338 14.2644 25.6661 14.2864 25.7192C14.3404 25.849 14.894 25.9314 15.033 25.8304C15.1025 25.7799 15.1657 25.7823 15.2025 25.8369C15.2916 25.9692 15.389 26.8844 15.3529 27.249C15.3353 27.4263 15.3069 27.8329 15.2896 28.1525L15.2584 28.7336L15.3529 29.0936C15.0756 29.2723 15.3639 29.0347 15.3529 29.4435C15.3449 29.7399 15.5672 29.802 15.6483 29.815C15.7127 29.8252 15.231 29.967 15.6483 29.9265C16.0656 29.8859 16.7036 29.8358 17.0661 29.815C18.4145 29.7375 17.6747 29.3747 17.7485 29.0936C17.8315 28.7775 18.1293 28.9309 17.7485 28.7336C17.4012 28.5537 17.8422 28.7855 17.9078 26.7971C17.9414 25.7784 17.9974 25.2528 18.139 24.6258L18.3258 23.7986L19.2283 23.1162C19.7247 22.7409 20.3802 22.2086 20.685 21.9334C21.2609 21.4134 21.4387 21.3595 21.626 21.6481C21.7419 21.8268 22.2485 21.9369 22.5674 21.8527C22.6595 21.8284 22.792 21.865 22.8941 21.9427C22.9886 22.0147 23.1617 22.0706 23.2789 22.067C23.396 22.0634 23.5061 22.0946 23.5234 22.1363C23.5407 22.1781 23.6756 22.2315 23.8232 22.2551C24.1375 22.3053 24.3138 22.5115 24.2711 22.779C24.2409 22.9682 24.266 23.116 24.4451 23.807C24.4967 24.0062 24.5287 24.2334 24.5161 24.312C24.5036 24.3905 24.5313 24.5336 24.5776 24.6297C24.624 24.726 24.663 24.9615 24.6644 25.1531C24.6659 25.3448 24.71 25.5361 24.7624 25.5782C24.8484 25.6474 25.0124 26.5224 24.9827 26.7533C24.976 26.8049 25.0591 26.9432 25.1672 27.0606C25.3564 27.2659 25.375 27.2707 25.659 27.1867C25.8213 27.1386 25.9979 27.1047 26.0515 27.1114C26.1563 27.1243 26.5878 26.675 26.6112 26.5283C26.619 26.4794 26.5893 26.2285 26.545 25.9708C26.5009 25.713 26.4672 25.3425 26.4703 25.1474C26.4733 24.9523 26.4081 24.6478 26.3253 24.4706C26.2426 24.2934 26.1831 24.097 26.1931 24.0341C26.2032 23.9711 26.108 23.6294 25.9815 23.2745C25.855 22.9195 25.7536 22.5502 25.7561 22.4535C25.7585 22.3569 25.7505 22.2209 25.7383 22.1514C25.6217 21.485 25.6639 20.8122 25.8342 20.6184C25.888 20.5572 25.9013 20.4375 25.8676 20.3153C25.8219 20.1489 25.8424 20.0971 25.9834 20.0217C26.0776 19.9714 26.2333 19.9416 26.3294 19.9555C26.4255 19.9694 26.5321 19.9484 26.5661 19.9088C26.6002 19.8692 26.7134 19.8505 26.8177 19.8671C26.922 19.8838 27.0352 19.865 27.0693 19.8254C27.1033 19.7858 27.1952 19.7636 27.2735 19.7761C27.3517 19.7886 27.5277 19.7655 27.6646 19.7247C27.8015 19.684 28.0513 19.6486 28.2197 19.646C28.519 19.6415 28.5235 19.6455 28.4191 19.8276C28.3604 19.93 28.1024 20.1673 27.8458 20.3549C27.5892 20.5425 27.3703 20.7517 27.3594 20.82C27.3387 20.9497 26.9574 21.3447 26.6014 21.6051C26.364 21.7788 26.3105 21.9713 26.4296 22.2231C26.475 22.3192 26.5074 22.5566 26.5017 22.7506C26.4854 23.298 26.9486 23.6854 27.7124 23.7634C27.974 23.7901 28.1833 23.8412 28.1775 23.877C28.1127 24.2775 28.1112 26.6138 28.1757 26.717C28.2228 26.7921 28.2492 27.0727 28.2346 27.3406C28.2115 27.7633 28.1729 27.8753 27.9422 28.188C27.7959 28.3863 27.6623 28.6361 27.6452 28.7432C27.619 28.9074 27.6444 28.9353 27.8075 28.9209C27.9139 28.9114 28.2646 28.921 28.5869 28.9421C29.0209 28.9705 29.1884 28.9489 29.2323 28.8591C29.2649 28.7923 29.3506 28.655 29.4229 28.5539C29.6379 28.2533 29.6859 27.8849 29.5197 27.8117C29.3803 27.7503 29.343 27.4043 29.4008 26.7079C29.4118 26.5745 29.4299 26.2401 29.4408 25.9648C29.4592 25.5053 29.5056 25.3765 30.0066 24.3982C30.3068 23.8121 30.6766 23.031 30.8284 22.6625C31.1287 21.9337 31.4782 21.3962 31.7797 21.1995C31.8853 21.1306 31.9846 20.9941 32.0002 20.8963C32.0179 20.7854 32.0913 20.7121 32.1945 20.7019C32.2884 20.6927 32.3711 20.6184 32.3851 20.5308C32.4177 20.3268 32.6964 20.1507 32.9282 20.1877C33.0428 20.206 33.2477 20.1111 33.466 19.9387C33.7381 19.7238 33.8547 19.6783 33.9762 19.7394C34.0628 19.7831 34.59 19.8996 35.1479 19.9984C36.1945 20.1839 36.4129 20.2856 36.8434 20.7884C36.9255 20.8843 37.2037 20.9556 37.9021 21.0597C38.4231 21.1373 39.1819 21.2581 39.5882 21.3282C40.2309 21.4391 40.3833 21.4377 40.7599 21.3177C41.2902 21.1488 41.297 21.1498 41.572 21.4385C41.8279 21.7072 42.7415 22.4098 42.8593 22.4286C42.9028 22.4356 43.0726 22.5771 43.2365 22.743C43.5621 23.0728 43.4066 23.0386 45.1875 23.1726C45.3428 23.1843 45.5772 23.1695 45.7083 23.1396C45.8394 23.1098 46.0365 23.0997 46.1462 23.1173C46.2559 23.1348 46.5116 23.071 46.7145 22.9754C46.9175 22.8798 47.3684 22.7426 47.7167 22.6705C48.0649 22.5984 48.3972 22.4981 48.4551 22.4478C48.513 22.3975 48.6299 22.3674 48.715 22.381C48.8001 22.3946 49.0082 22.3017 49.1775 22.1746C49.3466 22.0475 49.5299 21.9694 49.5846 22.0012C49.6393 22.033 49.8175 21.948 49.9807 21.8124C50.1438 21.6768 50.3217 21.573 50.3761 21.5817C50.4304 21.5903 50.5498 21.5371 50.6413 21.4634C50.7327 21.3896 51.0808 21.2012 51.4147 21.0447C51.7484 20.8883 52.0269 20.7275 52.0332 20.6875C52.0396 20.6475 52.1038 20.6022 52.1757 20.5869C52.3033 20.5598 52.6427 20.3534 53.1323 20.0052C53.3021 19.8843 53.3872 19.864 53.4177 19.9371C53.4414 19.9944 53.4147 20.0749 53.3582 20.116C53.172 20.2514 53.228 20.3364 53.4985 20.3296C53.7294 20.3237 53.7734 20.3529 53.8286 20.5484C53.8637 20.6725 53.8653 20.8056 53.832 20.8442C53.7932 20.8893 53.985 20.9242 54.3697 20.9421C54.6986 20.9572 55.1144 20.9918 55.2937 21.0188C55.473 21.0458 55.6766 21.0358 55.7462 20.9966C55.8158 20.9575 55.9654 20.9201 56.0787 20.9134C56.192 20.9069 56.5836 20.8702 56.9489 20.832C57.3141 20.7938 57.7972 20.759 58.0224 20.7547C58.2476 20.7503 58.576 20.7243 58.7521 20.6969C59.0142 20.6562 59.0814 20.6685 59.1215 20.765C59.1916 20.9336 59.0939 22.9512 58.9764 23.7643C58.9549 23.9132 58.9805 24.095 59.0334 24.1682C59.0863 24.2415 59.1119 24.4156 59.0902 24.5553C59.0401 24.8795 59.0922 24.995 59.3355 25.0993C59.4678 25.156 59.5715 25.1481 59.6548 25.0748C59.7435 24.9968 59.9258 24.9895 60.3058 25.0489C60.9869 25.1553 61.2822 25.0296 61.1847 24.6747C61.1499 24.5478 61.0913 24.4391 61.0545 24.4332C60.8551 24.4014 60.7233 24.0337 60.7812 23.6709C60.8147 23.461 60.8032 23.2089 60.7556 23.1107C60.708 23.0124 60.6905 22.679 60.7167 22.3697C60.743 22.0605 60.7649 21.5864 60.7654 21.3162C60.7664 20.7093 60.835 20.643 61.4275 20.6764C61.6696 20.6902 61.944 20.683 62.0374 20.6607C62.1307 20.6382 62.3935 20.603 62.6213 20.5822C62.8491 20.5614 63.0568 20.5258 63.0829 20.5031C63.1836 20.4152 63.6116 20.2557 63.7092 20.2695C63.7656 20.2776 63.9125 20.2281 64.0357 20.1597C64.1589 20.0913 64.3324 20.0461 64.4214 20.0593C64.5103 20.0725 64.6558 20.0212 64.7448 19.9454C64.8339 19.8695 64.9608 19.8161 65.0268 19.8266C65.093 19.8372 65.1528 19.8099 65.1598 19.766C65.1668 19.722 65.2424 19.6973 65.3277 19.7109C65.4132 19.7245 65.527 19.6799 65.5806 19.6117C65.6632 19.5071 65.7081 19.5076 65.8699 19.6152C65.9753 19.6853 66.0539 19.79 66.0447 19.8478C66.0354 19.9056 66.1363 20.309 66.2689 20.7442C66.4014 21.1793 66.5044 21.5697 66.4977 21.6117C66.491 21.6537 66.5406 21.745 66.6081 21.8146C66.6756 21.8843 66.7272 21.9868 66.7228 22.0423C66.7047 22.2718 66.7186 22.3078 66.8326 22.326C66.9078 22.338 66.9399 22.4211 66.9192 22.5503C66.8926 22.7173 66.9205 22.756 67.0697 22.7585C67.233 22.7613 67.2628 22.7118 67.3447 22.3021C67.4136 21.9579 67.409 21.8266 67.3263 21.7786C67.2656 21.7434 67.2239 21.6645 67.2337 21.6033C67.2436 21.5416 67.1719 21.4788 67.0726 21.4623C66.8414 21.4237 66.6367 21.2354 66.7879 21.2003C66.8462 21.1868 66.9015 21.1277 66.9108 21.0692C66.9202 21.0107 66.973 20.9552 67.0281 20.9461C67.0972 20.9346 67.0881 20.8326 66.9989 20.6179C66.9277 20.4465 66.8788 20.2476 66.8902 20.1759C66.9017 20.1042 66.8752 20.0399 66.8314 20.0329C66.7876 20.0259 66.7651 19.9371 66.7813 19.8356C66.7975 19.734 66.7644 19.4959 66.7078 19.3065C66.5515 18.7839 66.5494 18.5265 66.6995 18.3063C67.1348 17.6674 67.3644 16.9291 67.199 16.7001C67.1629 16.65 67.1467 16.5248 67.1631 16.422C67.1966 16.2126 67.1459 16.102 66.7822 15.5906C66.6432 15.3951 66.4593 15.2239 66.3736 15.2102C66.2753 15.1945 66.2264 15.131 66.2412 15.0384C66.2573 14.9378 66.1696 14.8422 65.9631 14.7352C65.731 14.615 65.6681 14.5378 65.69 14.4007C65.7056 14.3026 65.668 14.1931 65.6064 14.1573C65.5227 14.1087 65.5153 13.9607 65.5776 13.5707C65.6234 13.2839 65.6888 13.0536 65.7231 13.0591C65.8234 13.0751 66.0745 12.6156 66.1963 12.1929C66.2987 11.8374 66.334 11.7976 66.5795 11.7592C66.7283 11.7359 66.9667 11.6358 67.1093 11.5367C67.252 11.4376 67.4102 11.3632 67.461 11.3713C67.6582 11.4028 67.7778 11.0594 67.9668 9.91915C68.147 8.83153 68.1771 8.38053 68.0843 8.15428C68.0645 8.10607 68.0316 7.93639 68.0111 7.77712C67.9847 7.57129 67.8955 7.42872 67.7022 7.28346C67.5075 7.13716 67.4389 7.0267 67.4601 6.89374C67.4764 6.79169 67.5198 6.71297 67.5565 6.71883C67.6441 6.73281 67.8664 6.39432 67.8974 6.19979C67.9108 6.11603 68.0325 5.92934 68.1677 5.78504C68.303 5.64073 68.4233 5.46266 68.435 5.38936C68.4467 5.31597 68.5201 5.1947 68.5979 5.11967C68.6758 5.04474 68.7528 4.9075 68.769 4.81485C68.7853 4.72221 68.8848 4.56646 68.9902 4.46872C69.0956 4.37107 69.1881 4.25187 69.1957 4.20388C69.2034 4.15597 69.2409 4.12167 69.2791 4.12777C69.3445 4.13821 69.4026 3.96683 69.7063 2.86528C69.8197 2.45404 69.8171 2.41211 69.6764 2.38963C69.5914 2.37607 69.4721 2.40124 69.4112 2.44555ZM62.5236 7.29027C62.4543 7.32031 62.4375 7.37994 62.474 7.46528C62.5114 7.5529 62.5349 7.56255 62.5466 7.49522C62.556 7.44046 62.6174 7.40417 62.6831 7.41466C62.7488 7.42514 62.8083 7.39779 62.8153 7.35387C62.8303 7.25988 62.6728 7.22549 62.5236 7.29027ZM63.0601 8.9564C62.9436 9.02378 62.7806 9.06801 62.6979 9.0548C62.6152 9.04159 62.5422 9.06385 62.5358 9.10433C62.5293 9.14474 62.4153 9.18419 62.2825 9.19197C62.1497 9.19975 61.9901 9.25091 61.9279 9.30559C61.8656 9.36033 61.7828 9.40001 61.7437 9.39377C61.6233 9.37455 61.1206 9.81812 61.0943 9.96681C61.0807 10.0441 61.0146 10.1704 60.9476 10.2477C60.8431 10.3679 60.852 10.4263 61.0094 10.6545C61.1739 10.8928 61.2593 10.9361 61.8217 11.066C62.1674 11.1459 62.4955 11.2631 62.5508 11.3263C62.6884 11.4839 62.5454 11.9493 62.301 12.1389C62.1954 12.2208 62.1057 12.3085 62.1017 12.3338C62.0867 12.4278 62.7638 12.8322 62.9989 12.8698C63.1914 12.9005 63.3717 12.8173 63.8575 12.4731C64.1957 12.2335 64.5786 12.0093 64.7085 11.9748C64.8969 11.9248 64.9558 11.8561 65.0008 11.634C65.116 11.0649 65.1068 10.783 64.9633 10.4767C64.8558 10.2474 64.8331 10.0539 64.8795 9.76315C64.9145 9.54371 64.9071 9.31421 64.863 9.25312C64.7573 9.10677 64.3767 9.05648 63.9622 9.13393C63.687 9.18538 63.6097 9.17461 63.523 9.07265C63.3312 8.84737 63.2739 8.83298 63.0601 8.9564ZM40.5863 5.97828C39.6071 6.03802 38.4273 6.2654 37.3636 6.59949L36.312 6.9297L36.2632 7.33135C36.2363 7.55226 36.2122 7.86164 36.2095 8.01884C36.2032 8.38912 36.1577 9.1223 36.0937 9.88381C36.0185 10.781 36.0138 10.8998 36.05 10.9886C36.0681 11.033 36.0562 11.1665 36.0234 11.2852C35.9906 11.4038 35.992 11.5053 36.0264 11.5108C36.1161 11.5252 36.1229 12.0164 36.0348 12.1143C35.994 12.1595 35.9505 12.261 35.9379 12.34C35.9152 12.482 35.4656 12.6939 34.6726 12.9367C34.2258 13.0735 33.5951 12.9989 33.5227 12.8007C33.485 12.6976 33.3846 12.6637 33.0811 12.6515L32.6882 12.6358L32.6798 12.3212C32.6714 12.0051 32.7014 11.9666 33.0907 11.794C33.2247 11.7345 33.5923 11.0593 33.5483 10.9533C33.5278 10.904 33.5439 10.8688 33.5841 10.8752C33.6762 10.8899 33.7247 10.3572 33.6596 10.0479C33.6326 9.91966 33.6319 9.81825 33.658 9.82243C33.6842 9.82662 33.6708 9.771 33.6282 9.69877C33.5857 9.62654 33.5845 9.50041 33.6256 9.41837C33.6781 9.31359 33.6609 9.25491 33.5676 9.22094C33.4427 9.17545 33.4445 9.16573 33.5966 9.05514C33.7435 8.94832 33.7486 8.9244 33.6531 8.79221C33.5552 8.65652 33.5326 8.53746 33.5783 8.39711C33.6396 8.20848 33.2939 8.40903 32.1815 9.20759L30.9336 10.1034L31.3275 10.9342C31.7513 11.8282 32.4606 13.6051 32.6589 14.2692C32.726 14.4938 32.802 14.681 32.8278 14.6851C32.9249 14.7006 34.5639 13.9934 35.4585 13.5499C36.5812 12.9934 37.088 12.6312 38.362 11.4743C38.5518 11.302 38.8805 11.0228 39.0923 10.854C39.3042 10.6851 39.7331 10.2966 40.0454 9.9908C40.3579 9.68488 40.8444 9.24257 41.1267 9.00791C41.4091 8.77319 41.6436 8.55899 41.6479 8.53176C41.6523 8.50461 41.8292 8.31585 42.0411 8.1123C42.2529 7.90881 42.4362 7.68143 42.4483 7.60712C42.4603 7.53272 42.5548 7.43062 42.6582 7.38014C42.7616 7.32967 42.8976 7.2252 42.9606 7.14787C43.0235 7.07063 43.1569 6.90465 43.2569 6.77904L43.4388 6.55071L43.2322 6.42256C42.9142 6.22527 41.2147 5.93998 40.5863 5.97828ZM43.509 7.10107C43.4981 7.1695 43.5291 7.20877 43.578 7.18833C43.6269 7.1678 43.6517 7.11436 43.633 7.06945C43.5825 6.9478 43.5314 6.96077 43.509 7.10107ZM52.5673 8.91068C52.4737 8.98606 52.4232 9.05194 52.455 9.05701C52.539 9.07042 52.8042 8.86613 52.7681 8.81597C52.7512 8.79263 52.6608 8.83521 52.5673 8.91068ZM22.7532 4.67899C21.1659 4.76323 19.3928 5.4862 17.5507 6.80045C16.6936 7.41197 16.6849 7.42131 16.7321 7.68655C16.7583 7.83396 16.8023 7.93819 16.8299 7.9182C16.8574 7.89811 16.9138 7.92062 16.9553 7.96811C17.0085 8.02917 17.0409 7.93805 17.0657 7.65794C17.1025 7.24151 17.103 7.24109 17.5512 7.21513C17.7138 7.20571 17.814 7.25407 17.9112 7.38866C17.9957 7.50557 18.1513 7.59201 18.3286 7.62031C18.5726 7.65927 18.6203 7.70332 18.6766 7.94202C18.7125 8.09409 18.7489 8.44081 18.7575 8.71241C18.7873 9.66062 18.9336 10.3541 19.1711 10.673L19.3966 10.9758L19.3358 13.0791C19.2631 15.5965 19.268 15.5528 19.0521 15.5741C18.9458 15.5846 18.8897 15.6406 18.8997 15.7263C18.9084 15.8009 18.9213 16.084 18.9283 16.3554C18.9437 16.9442 19.0974 17.8973 19.1793 17.9104C19.2604 17.9234 20.1483 17.1684 20.8415 16.4971C21.6617 15.7027 22.4581 14.7785 23.1676 13.7977C24.0665 12.5551 24.172 12.3174 24.264 11.3286C24.3537 10.3625 24.3719 10.3261 25.3258 9.19833C26.041 8.35278 26.1887 8.02327 26.1697 7.31647C26.1417 6.28167 26.0759 6.05006 25.7135 5.71017C24.9952 5.03658 23.8082 4.62307 22.7532 4.67899ZM26.3159 6.72565C26.3246 6.86215 26.3442 7.06796 26.3595 7.18301C26.3846 7.37045 26.393 7.36269 26.4397 7.1091C26.4684 6.95342 26.4488 6.74761 26.3961 6.65174C26.3058 6.48762 26.3012 6.49188 26.3159 6.72565ZM64.174 13.344C64.0629 13.5365 64.1476 13.6861 64.4166 13.7722C64.5588 13.8178 64.6797 13.8509 64.6852 13.8458C64.6908 13.8408 64.7362 13.7234 64.786 13.5851C64.8762 13.335 64.8747 13.3331 64.5579 13.2825C64.3478 13.2489 64.2168 13.2699 64.174 13.344ZM49.2139 11.7925C49.147 11.8073 48.9828 11.9152 48.8491 12.0322C48.4277 12.4007 47.7331 12.8888 47.6492 12.8754C47.6048 12.8683 47.561 12.9095 47.5519 12.9668C47.5427 13.0242 47.4231 13.1801 47.2861 13.3134C46.7454 13.8393 46.5794 14.1651 46.208 15.4295C46.1512 15.6231 46.01 16.3487 45.8943 17.042C45.6591 18.4513 45.6585 18.449 46.2086 18.4991C46.7871 18.5517 47.7291 18.4711 47.9228 18.3523C48.0014 18.3042 48.1193 18.2733 48.1848 18.2838C48.2504 18.2942 48.4013 18.2273 48.5203 18.135C48.6392 18.0427 48.863 17.9466 49.0176 17.9214C49.1721 17.8963 49.3028 17.8492 49.308 17.8168C49.3132 17.7844 49.4524 17.718 49.6173 17.6691C49.7822 17.6203 49.9259 17.5259 49.9365 17.4593C49.9494 17.3783 50.034 17.3507 50.1922 17.376C50.3465 17.4006 50.543 17.3396 50.7586 17.2003C51.5071 16.7163 52.1221 16.2247 52.5007 15.8075C52.984 15.2748 53.1919 15.1529 53.5305 15.2037L53.8402 15.2502L53.65 15.0354C53.4235 14.7797 53.4298 14.6711 53.6847 14.4348C53.7901 14.337 53.8881 14.1834 53.9025 14.0934C53.9169 14.0033 54.0061 13.8659 54.1006 13.788C54.3795 13.5585 54.7263 12.6953 54.551 12.6673C54.4624 12.6531 54.1736 12.8886 54.0263 13.0951C53.9394 13.2169 53.8083 13.2578 53.5197 13.2533C53.002 13.245 52.8431 13.3371 52.9598 13.5778C53.0641 13.7931 52.9782 13.972 52.7852 13.9412C52.592 13.9104 52.4883 13.7092 52.5498 13.4846C52.595 13.3196 52.565 13.2889 52.2948 13.2226C52.1158 13.1787 51.9576 13.1834 51.9142 13.234C51.8711 13.284 51.6372 13.2922 51.3586 13.2533C51.0938 13.2164 50.8461 13.2089 50.808 13.2365C50.77 13.2642 50.7092 13.2822 50.673 13.2764C50.5821 13.2619 49.669 11.9776 49.6838 11.8849C49.6967 11.8043 49.4124 11.7484 49.2139 11.7925ZM27.7306 8.49369C27.7425 8.57805 27.723 8.82986 27.6873 9.05313C27.6155 9.5031 27.6968 9.53009 27.816 9.09586C27.861 8.93198 27.8546 8.71961 27.8007 8.57899C27.7504 8.44772 27.7188 8.40926 27.7306 8.49369ZM57.8133 13.6292C57.8106 13.6462 57.8454 13.7715 57.8908 13.9078C57.9992 14.2338 57.9772 14.3335 57.7929 14.3516C57.6473 14.3659 57.3952 14.7503 57.1302 15.3615C57.0687 15.5036 56.9735 15.6524 56.9188 15.6922C56.8641 15.732 56.8068 15.8423 56.7917 15.9374C56.7765 16.0326 56.6877 16.1865 56.5942 16.2795C56.3488 16.5237 56.1829 16.7181 56.1094 16.8468C56.0741 16.9087 56.004 17.0081 55.9535 17.0676C55.7799 17.2721 55.5345 17.6759 55.5169 17.7858C55.4934 17.933 55.7683 17.97 55.9165 17.8396C55.9816 17.7824 56.0965 17.7455 56.172 17.7576C56.2475 17.7696 56.4034 17.7208 56.5183 17.6491C56.6333 17.5774 56.7932 17.5292 56.8738 17.5421C56.9543 17.5549 57.0763 17.5007 57.145 17.4216C57.2203 17.335 57.3562 17.2916 57.487 17.3124C57.6063 17.3315 57.8295 17.3159 57.983 17.2779C58.4537 17.1613 59.3421 17.0339 59.5105 17.0589C59.5982 17.0719 59.748 17.041 59.8432 16.99C59.9385 16.9391 60.0771 16.9071 60.1513 16.919C60.334 16.9482 60.5575 16.6855 60.6936 16.2816C60.7556 16.0979 60.8595 15.9363 60.9246 15.9225C61.0715 15.8913 61.1209 15.6319 61.0002 15.5258C60.8552 15.3984 60.1712 15.0443 60.0167 15.0167C59.9384 15.0028 59.7921 14.886 59.6916 14.7574C59.5904 14.6279 59.4129 14.5082 59.2938 14.4892C59.1756 14.4703 59.0624 14.4154 59.0424 14.3671C59.0223 14.3189 58.9006 14.2626 58.7718 14.242C58.643 14.2215 58.5433 14.1696 58.5502 14.1266C58.557 14.0837 58.4242 13.952 58.2551 13.8338C57.9586 13.6268 57.8237 13.5643 57.8133 13.6292ZM48.778 14.1816C48.742 14.2548 48.6719 14.3685 48.6225 14.4346C48.5147 14.5783 48.5597 14.6586 48.7662 14.6916C48.8501 14.705 48.901 14.7408 48.8793 14.771C48.8575 14.8013 48.7362 14.9821 48.6096 15.1726C48.4831 15.3631 48.2992 15.547 48.201 15.5811C48.1028 15.6152 48.0113 15.7133 47.9976 15.7991C47.9682 15.9833 47.6905 16.2395 47.5455 16.2163C47.4895 16.2074 47.4353 16.2527 47.4251 16.3171C47.403 16.4554 47.1392 16.5609 46.9076 16.5239C46.7763 16.5029 46.7513 16.4471 46.7833 16.2464L46.8234 15.9952L46.5945 16.1754C46.4686 16.2744 46.3101 16.3466 46.2423 16.3358C45.9637 16.2913 46.1111 16.8415 46.4229 17.0097C46.6885 17.153 47.059 17.2326 47.1505 17.1662C47.1826 17.1428 47.3424 17.1368 47.5057 17.1528C47.669 17.1688 47.8501 17.1349 47.9084 17.0776C48.0442 16.9438 48.4508 16.9053 48.4703 17.0244C48.4806 17.0869 48.5567 17.0986 48.7256 17.0632C48.8882 17.0293 48.9937 17.0441 49.0503 17.1089C49.1811 17.2586 49.5624 16.9293 49.5277 16.6966C49.5085 16.5676 49.5618 16.467 49.711 16.3513C49.9084 16.1981 49.9147 16.1776 49.8124 16.02C49.7525 15.9275 49.7133 15.7899 49.7254 15.714C49.7375 15.6381 49.6529 15.4567 49.5372 15.311C49.4051 15.1447 49.3626 15.031 49.4228 15.0058C49.5436 14.9552 49.4802 14.7579 49.2179 14.3673C48.9982 14.0403 48.8735 13.9876 48.778 14.1816ZM9.98306 8.2474C9.9513 8.28425 9.95282 8.33813 9.98631 8.36714C10.0198 8.39615 10.0556 8.36757 10.0658 8.30361C10.0873 8.16897 10.0641 8.15322 9.98306 8.2474ZM14.8931 9.07278C14.6411 9.28222 13.5999 10.3693 13.5896 10.4336C13.5647 10.5896 14.322 12.7929 14.4054 12.807C14.455 12.8155 14.5361 12.9671 14.5856 13.1439C14.9252 14.3574 15.0022 14.5647 15.1345 14.623C15.2143 14.6581 15.2871 14.785 15.2964 14.9049C15.3056 15.0249 15.3818 15.342 15.4655 15.6096C15.7056 16.3767 15.9659 17.5085 16.1851 18.7389L16.3872 19.873L16.5647 19.6318C16.7197 19.4211 16.7497 19.2812 16.8018 18.5269C16.8347 18.0519 16.8779 17.6504 16.8978 17.6348C16.9777 17.5722 16.998 17.7219 16.9827 18.2613L16.9666 18.8264L17.0825 18.027C17.1861 17.3131 17.183 17.2219 17.0535 17.1749C16.9737 17.1459 16.8668 17.1653 16.8159 17.2179C16.7407 17.2956 16.7186 17.2928 16.6982 17.2028C16.6794 17.1199 16.6398 17.1238 16.5402 17.2185C16.4244 17.3288 16.3996 17.3279 16.3466 17.2124C16.268 17.0408 16.3111 16.7761 16.5087 16.2186C16.6649 15.7778 16.6635 15.743 16.4481 14.6993C16.3269 14.1119 16.1712 13.5741 16.1022 13.5042C16.0332 13.4344 15.9847 13.3266 15.9946 13.2649C16.0438 12.9568 15.7995 12.1833 15.5392 11.8228C15.3592 11.5736 15.269 11.3642 15.2948 11.2551C15.3172 11.1601 15.2979 11.0835 15.2519 11.0849C15.2059 11.0862 15.1647 11.0223 15.1602 10.9427C15.1557 10.8631 15.1926 10.8046 15.2422 10.8125C15.2917 10.8204 15.3001 10.8643 15.2608 10.9101C15.2164 10.9616 15.2277 10.9771 15.2905 10.9507C15.3667 10.9188 15.3747 10.8613 15.3229 10.718C15.2851 10.6134 15.2682 10.4978 15.2854 10.4613C15.3026 10.4247 15.2644 10.4059 15.2006 10.4195C15.1367 10.433 15.0923 10.3952 15.1018 10.3355C15.1113 10.2757 15.144 10.2483 15.1743 10.2745C15.2047 10.3008 15.2505 10.1562 15.2762 9.95317C15.3095 9.6894 15.2858 9.55574 15.193 9.48499C15.1215 9.43058 15.0688 9.34921 15.076 9.30425C15.0832 9.2593 15.1191 9.24849 15.1559 9.28024C15.1926 9.31206 15.2552 9.30011 15.2951 9.25375C15.3406 9.20091 15.3297 9.18533 15.266 9.21201C15.2091 9.23585 15.1522 9.1962 15.1366 9.12206C15.103 8.96167 15.0416 8.94934 14.8931 9.07278ZM24.5028 11.1038C24.4689 11.3161 24.46 11.4761 24.4831 11.4593C24.5553 11.4068 24.6607 10.8511 24.6114 10.7829C24.5855 10.7471 24.5367 10.8916 24.5028 11.1038ZM14.9717 9.76911C14.945 9.80022 14.9895 9.83624 15.0706 9.84919C15.1517 9.86214 15.2053 9.84178 15.1895 9.80389C15.1737 9.76599 15.1293 9.7299 15.0907 9.72374C15.0521 9.71757 14.9986 9.73802 14.9717 9.76911ZM29.2566 12.5002C29.181 12.543 29.0454 12.732 28.9554 12.9203C28.7582 13.333 28.4378 13.8803 28.1004 14.3806C27.3596 15.4794 27.0796 15.9263 27.0617 16.0389C27.0507 16.1077 26.9827 16.2128 26.9107 16.2724C26.8386 16.332 26.7185 16.6013 26.6438 16.8709C26.5166 17.3299 26.5183 17.3626 26.6703 17.3869C27.0023 17.4399 26.9749 17.927 26.6043 18.5588C26.1884 19.2678 26.2218 19.48 26.7216 19.3037C26.8776 19.2487 27.0595 19.2089 27.1258 19.2155C27.421 19.2445 27.952 19.2014 28.0009 19.1445C28.0305 19.1101 28.1337 19.0946 28.2303 19.11C28.5324 19.1583 29.2911 18.9708 29.693 18.7486C30.0679 18.5413 30.7498 17.9953 30.7655 17.8897C30.7698 17.8609 30.8943 17.4473 31.0424 16.9706L31.3114 16.1038L30.9849 15.3236C30.433 14.005 29.6042 12.4454 29.4462 12.4281C29.4176 12.4249 29.3323 12.4574 29.2566 12.5002ZM15.0868 10.6341C15.1321 10.6973 15.1924 10.7321 15.2208 10.7114C15.2492 10.6907 15.2122 10.639 15.1385 10.5964C15.032 10.5351 15.0214 10.5427 15.0868 10.6341ZM39.5186 15.2212C39.4217 15.3064 39.4237 15.3289 39.5295 15.3458C39.6005 15.3571 39.6672 15.3125 39.6778 15.2466C39.6883 15.1807 39.6833 15.1247 39.6668 15.122C39.6503 15.1194 39.5836 15.164 39.5186 15.2212ZM46.9055 17.0149C46.8985 17.0588 46.9264 17.1001 46.9676 17.1067C47.0089 17.1133 47.0704 17.0863 47.1045 17.0467C47.1386 17.0071 47.1105 16.9658 47.0423 16.9549C46.9741 16.944 46.9125 16.971 46.9055 17.0149ZM66.6921 20.6625C66.6071 20.7613 66.6538 20.8531 66.7778 20.8313C66.8287 20.8224 66.8438 20.767 66.8146 20.697C66.7777 20.6088 66.746 20.5999 66.6921 20.6625ZM11.1603 13.1301C10.942 13.3762 10.7472 13.6017 10.7272 13.6312C10.7072 13.6606 10.8889 13.8186 11.131 13.9823C11.5531 14.2677 11.8484 14.7286 11.712 14.889C11.6837 14.9221 11.6693 15.227 11.6799 15.5665C11.6905 15.906 11.6583 16.3062 11.6085 16.4558C11.412 17.045 11.357 17.1527 11.2605 17.1373C11.2054 17.1285 10.8939 17.3388 10.5685 17.6048C10.1574 17.9406 9.95548 18.0587 9.90694 17.9915C9.85848 17.9244 9.78674 17.9279 9.67189 18.003C9.5166 18.1044 9.50835 18.0993 9.53572 17.9187C9.56 17.7584 9.51302 17.7858 9.25385 18.0828C9.0828 18.2788 8.86582 18.5851 8.77173 18.7633C8.58178 19.1232 8.56539 19.1317 8.42916 18.943C8.32258 18.7955 8.36038 18.4147 8.49701 18.2594C8.5459 18.2037 8.57458 18.1038 8.56061 18.0374C8.53981 17.9381 8.52011 17.9337 8.44977 18.0123C8.31405 18.1639 8.23653 17.902 8.29884 17.5026C8.35352 17.1525 8.28785 16.8654 8.1059 16.6583C7.9815 16.5167 6.88593 16.3203 6.79702 16.4237C6.75944 16.4673 6.66829 16.4333 6.56144 16.3357C6.40141 16.1897 6.36319 16.1836 6.0957 16.2623C5.93544 16.3094 5.77789 16.3437 5.74565 16.3386C5.69096 16.3298 5.49167 16.4486 4.44099 17.1163C4.21614 17.2591 3.81758 17.5124 3.5552 17.6792C3.04926 18.0007 2.98537 18.1206 3.11203 18.5114C3.15562 18.6458 3.19982 18.8215 3.2102 18.9017C3.22064 18.982 3.33085 19.1343 3.45508 19.2402C3.64892 19.4055 3.80167 19.4479 4.53257 19.5385C5.3387 19.6386 5.54674 19.6388 6.54358 19.5409C6.77164 19.5186 7.23686 19.4807 7.57739 19.4569C7.91792 19.4331 8.34534 19.4019 8.52721 19.3876C8.70908 19.3734 9.05965 19.3634 9.30622 19.3657C10.3902 19.3754 10.7701 19.361 10.9349 19.3038C11.0318 19.2701 11.2367 19.2626 11.3902 19.2871C11.5437 19.3116 11.6972 19.2993 11.7313 19.2597C11.7653 19.2201 11.8806 19.2017 11.9875 19.2187C12.2406 19.2591 12.2603 19.0996 12.0426 18.7725C11.7039 18.264 11.5834 17.3526 11.8606 17.3969C11.9238 17.407 11.9917 17.4547 12.0118 17.5029C12.0318 17.5512 12.0875 17.5969 12.1355 17.6046C12.1835 17.6122 12.1678 17.5339 12.1007 17.4304C12.0093 17.2896 12.0045 17.2129 12.0813 17.1251C12.3322 16.8391 12.4467 17.0581 12.3548 17.6479C12.3302 17.8061 12.326 18.0449 12.3457 18.1787C12.3652 18.3123 12.4008 18.6 12.4247 18.8177C12.463 19.1664 12.494 19.2177 12.6848 19.2482C12.9188 19.2855 13.0418 19.1954 13.0976 18.9456C13.1171 18.8586 13.1439 18.7482 13.1572 18.7003C13.1717 18.6482 13.2917 18.6434 13.4551 18.6883C13.6057 18.7298 13.7321 18.7432 13.7361 18.7182C13.7513 18.6228 12.9293 16.0123 12.5964 15.0986C12.1959 13.9996 11.6556 12.6964 11.5969 12.6882C11.575 12.6851 11.3785 12.884 11.1603 13.1301ZM30.1079 16.516C29.9616 16.5497 29.9446 16.7357 30.0806 16.8147C30.1616 16.8616 30.2014 16.8249 30.2241 16.6826C30.2414 16.5741 30.2462 16.4868 30.2347 16.4885C30.2232 16.4902 30.1662 16.5026 30.1079 16.516ZM38.8843 19.7042C38.8737 19.7709 38.9196 19.8342 38.9864 19.8449C39.0531 19.8555 39.1279 19.962 39.1527 20.0815C39.2109 20.363 39.2081 20.3716 39.0671 20.3491C39.0014 20.3386 38.9423 20.3638 38.9357 20.4052C38.9117 20.5554 39.0783 20.6077 39.2849 20.5146C39.4226 20.4526 39.5095 20.4512 39.5341 20.5105C39.5886 20.6416 39.8206 20.4868 39.8505 20.2993C39.8638 20.2162 39.9292 20.0854 39.9959 20.0087C40.1335 19.8502 40.073 19.6954 39.9176 19.8084C39.8615 19.8492 39.7658 19.8537 39.705 19.8184C39.6443 19.7832 39.5544 19.7994 39.5052 19.8543C39.4432 19.9238 39.4019 19.9247 39.3701 19.8573C39.345 19.8039 39.2298 19.7204 39.114 19.6716C38.9543 19.6042 38.8991 19.612 38.8843 19.7042ZM40.2273 20.1669C40.1913 20.2293 40.1964 20.3388 40.2386 20.4104C40.2826 20.4851 40.2797 20.6115 40.2317 20.7073C40.1635 20.8432 40.1746 20.8684 40.2914 20.8436C40.3704 20.8269 40.5394 20.8299 40.6672 20.8503C40.8601 20.8811 40.9047 20.8544 40.9304 20.6935C40.9874 20.3368 40.3883 19.8881 40.2273 20.1669ZM18.1332 17.0064C18.1395 17.12 18.1538 17.4723 18.1649 17.7894C18.176 18.1064 18.2003 18.2921 18.2189 18.2021C18.2685 17.9621 18.2387 17.0842 18.1758 16.9313C18.1372 16.8373 18.125 16.8587 18.1332 17.0064ZM17.7111 17.4303C17.691 17.5397 17.6811 17.7777 17.6893 17.9591L17.7041 18.289L17.7485 18.0095C17.7729 17.8558 17.7827 17.6178 17.7703 17.4807C17.7499 17.2536 17.7446 17.2491 17.7111 17.4303ZM38.0284 20.6336C38.0175 20.702 38.0429 20.7521 38.0848 20.7452C38.1267 20.7382 38.1664 20.6985 38.1731 20.6567C38.1797 20.615 38.1544 20.5648 38.1168 20.5451C38.0791 20.5255 38.0393 20.5653 38.0284 20.6336ZM17.3374 17.5958C17.2841 17.794 17.1866 18.7039 17.2146 18.7426C17.2331 18.7682 17.3029 18.7348 17.3698 18.6684C17.4613 18.5774 17.4912 18.4254 17.4909 18.0532C17.4907 17.7813 17.4596 17.5539 17.4218 17.5479C17.3841 17.5419 17.3461 17.5635 17.3374 17.5958Z" fill="#AC0D77"/>
</svg>
